# xmcd CD database file generated by Grip 2.95
# 
# Track frame offsets:
#       150
#       22196
#       37023
#       47754
#       67889
#       82571
#       107493
#       120783
#       142675
#       157488
#       171463
#       187551
#       205300
#       222147
#       239508
#       251213
#       269821
#       285131
#       302102
#       314437
#       340403
# 
# Disc length: 4765 seconds
# 
# Revision: 3
# Processed by: cddbd v1.5PL3 Copyright (c) Steve Scherf et al.
# Submitted via: Grip 2.95
# 
DISCID=2c129b15
DTITLE=Wayne Hancock - Houston 2003-09-20 Disc 2
DYEAR=1900
DGENRE=
TTITLE0=Wine Spodiodie
TTITLE1=Golden Rocket
TTITLE2=LIttle Lisa
TTITLE3=Route 66
TTITLE4=87 Southbound
TTITLE5=Johnson City
TTITLE6=Hoy Hoy Hoy
TTITLE7=We Three
TTITLE8=Tag Along
TTITLE9=Happy Birthday Julie
TTITLE10=Juke Joint Jumpin'
TTITLE11=North to Alaska
TTITLE12=That's What Daddy Wants
TTITLE13=Move It On Over
TTITLE14=Gonna Be Some Trouble
TTITLE15=Honky Tonk Man
TTITLE16=Big City Good Time Gal
TTITLE17=Any Old Time
TTITLE18=Your Cheatin' Heart
TTITLE19=Cold Lonesome Wind
TTITLE20=Kansas City (Here I Come)
EXTD=
EXTT0=
EXTT1=
EXTT2=
EXTT3=
EXTT4=
EXTT5=
EXTT6=
EXTT7=
EXTT8=
EXTT9=
EXTT10=
EXTT11=
EXTT12=
EXTT13=
EXTT14=
EXTT15=
EXTT16=
EXTT17=
EXTT18=
EXTT19=
EXTT20=
PLAYORDER=
